<svg width="93" height="93" viewBox="0 0 93 93" fill="none" xmlns="http://www.w3.org/2000/svg">
<path fill-rule="evenodd" clip-rule="evenodd" d="M59.3726 20.4963H14.4995C14.116 20.4963 13.8051 20.1854 13.8051 19.8019C13.8051 19.4183 14.116 19.1074 14.4995 19.1074H60.0671H62.747C63.1305 19.1074 63.4414 19.4183 63.4414 19.8019C63.4414 20.1854 63.1305 20.4963 62.747 20.4963H60.7615V36.9768H78.8299C79.2134 36.9768 79.5244 37.2877 79.5244 37.6712C79.5244 38.0547 79.2134 38.3657 78.8299 38.3657H60.7615V84.6287H75.457V46.49C75.457 46.1065 75.7678 45.7956 76.1514 45.7956C76.5349 45.7956 76.8458 46.1065 76.8458 46.49V84.6287H84.1908C84.5744 84.6287 84.8853 84.9396 84.8853 85.3232C84.8853 85.7067 84.5744 86.0176 84.1908 86.0176H76.1514H46.6646H30.582H9.13927C8.75574 86.0176 8.44482 85.7067 8.44482 85.3232C8.44482 84.9396 8.75574 84.6287 9.13927 84.6287H16.4852V33.4968C16.4852 33.1132 16.7961 32.8023 17.1796 32.8023C17.5632 32.8023 17.8741 33.1132 17.8741 33.4968V84.6287H29.8876V64.4755C29.8876 64.092 30.1985 63.781 30.582 63.781H46.6646C47.0481 63.781 47.359 64.092 47.359 64.4755V84.6287H59.3726V37.6712V20.4963ZM45.9701 65.1699V84.6287H31.2765V65.1699H45.9701ZM27.2075 34.693C27.2075 34.3095 27.5184 33.9985 27.902 33.9985H33.2628C33.6463 33.9985 33.9572 34.3095 33.9572 34.693C33.9572 35.0765 33.6463 35.3874 33.2628 35.3874H27.902C27.5184 35.3874 27.2075 35.0765 27.2075 34.693ZM43.9827 33.9985C43.5991 33.9985 43.2883 34.3095 43.2883 34.693C43.2883 35.0765 43.5991 35.3874 43.9827 35.3874H49.3435C49.7271 35.3874 50.038 35.0765 50.038 34.693C50.038 34.3095 49.7271 33.9985 49.3435 33.9985H43.9827ZM27.2075 49.5844C27.2075 49.2008 27.5184 48.8899 27.902 48.8899H33.2628C33.6463 48.8899 33.9572 49.2008 33.9572 49.5844C33.9572 49.968 33.6463 50.2788 33.2628 50.2788H27.902C27.5184 50.2788 27.2075 49.968 27.2075 49.5844ZM43.9827 48.8899C43.5991 48.8899 43.2883 49.2008 43.2883 49.5844C43.2883 49.968 43.5991 50.2788 43.9827 50.2788H49.3435C49.7271 50.2788 50.038 49.968 50.038 49.5844C50.038 49.2008 49.7271 48.8899 49.3435 48.8899H43.9827Z" fill="#6C0BDB"/>
</svg>
