<svg width="186" height="49" viewBox="0 0 186 49" fill="none" xmlns="http://www.w3.org/2000/svg">
<path d="M16.334 24.23C17.6353 24.5073 18.6807 25.158 19.47 26.182C20.2593 27.1847 20.654 28.3367 20.654 29.638C20.654 31.5153 19.9927 33.0087 18.67 34.118C17.3687 35.206 15.5447 35.75 13.198 35.75H2.734V13.286H12.846C15.1287 13.286 16.91 13.8087 18.19 14.854C19.4913 15.8993 20.142 17.318 20.142 19.11C20.142 20.4327 19.79 21.5313 19.086 22.406C18.4033 23.2807 17.486 23.8887 16.334 24.23ZM8.206 22.374H11.79C12.686 22.374 13.3687 22.182 13.838 21.798C14.3287 21.3927 14.574 20.806 14.574 20.038C14.574 19.27 14.3287 18.6833 13.838 18.278C13.3687 17.8727 12.686 17.67 11.79 17.67H8.206V22.374ZM12.238 31.334C13.1553 31.334 13.8593 31.1313 14.35 30.726C14.862 30.2993 15.118 29.6913 15.118 28.902C15.118 28.1127 14.8513 27.494 14.318 27.046C13.806 26.598 13.0913 26.374 12.174 26.374H8.206V31.334H12.238ZM29.2998 12.07V35.75H23.8278V12.07H29.2998ZM41.3933 36.006C39.6439 36.006 38.0653 35.6327 36.6573 34.886C35.2706 34.1393 34.1719 33.0727 33.3613 31.686C32.5719 30.2993 32.1773 28.678 32.1773 26.822C32.1773 24.9873 32.5826 23.3767 33.3932 21.99C34.2039 20.582 35.3133 19.5047 36.7213 18.758C38.1293 18.0113 39.7079 17.638 41.4573 17.638C43.2066 17.638 44.7853 18.0113 46.1933 18.758C47.6013 19.5047 48.7106 20.582 49.5213 21.99C50.3319 23.3767 50.7373 24.9873 50.7373 26.822C50.7373 28.6567 50.3213 30.278 49.4893 31.686C48.6786 33.0727 47.5586 34.1393 46.1293 34.886C44.7213 35.6327 43.1426 36.006 41.3933 36.006ZM41.3933 31.27C42.4386 31.27 43.3239 30.886 44.0493 30.118C44.7959 29.35 45.1693 28.2513 45.1693 26.822C45.1693 25.3927 44.8066 24.294 44.0813 23.526C43.3773 22.758 42.5026 22.374 41.4573 22.374C40.3906 22.374 39.5053 22.758 38.8013 23.526C38.0973 24.2727 37.7453 25.3713 37.7453 26.822C37.7453 28.2513 38.0866 29.35 38.7693 30.118C39.4733 30.886 40.3479 31.27 41.3933 31.27ZM52.5523 26.822C52.5523 24.966 52.9256 23.3447 53.6723 21.958C54.4403 20.5713 55.4963 19.5047 56.8403 18.758C58.2056 18.0113 59.7629 17.638 61.5123 17.638C63.7523 17.638 65.6189 18.2247 67.1123 19.398C68.6269 20.5713 69.6189 22.2247 70.0883 24.358H64.2643C63.7736 22.9927 62.8243 22.31 61.4163 22.31C60.4136 22.31 59.6136 22.7047 59.0163 23.494C58.4189 24.262 58.1203 25.3713 58.1203 26.822C58.1203 28.2727 58.4189 29.3927 59.0163 30.182C59.6136 30.95 60.4136 31.334 61.4163 31.334C62.8243 31.334 63.7736 30.6513 64.2643 29.286H70.0883C69.6189 31.3767 68.6269 33.0193 67.1123 34.214C65.5976 35.4087 63.7309 36.006 61.5123 36.006C59.7629 36.006 58.2056 35.6327 56.8403 34.886C55.4963 34.1393 54.4403 33.0727 53.6723 31.686C52.9256 30.2993 52.5523 28.678 52.5523 26.822ZM83.9273 35.75L78.4873 28.262V35.75H73.0153V12.07H78.4873V25.158L83.8953 17.894H90.6473L83.2233 26.854L90.7113 35.75H83.9273ZM113.885 13.286L105.917 35.75H99.0685L91.1005 13.286H96.9245L102.493 30.246L108.093 13.286H113.885ZM133.003 26.534C133.003 27.046 132.972 27.5793 132.908 28.134H120.524C120.609 29.2433 120.961 30.0967 121.58 30.694C122.22 31.27 122.998 31.558 123.916 31.558C125.281 31.558 126.23 30.982 126.764 29.83H132.588C132.289 31.0033 131.745 32.0593 130.956 32.998C130.188 33.9367 129.217 34.6727 128.044 35.206C126.87 35.7393 125.558 36.006 124.108 36.006C122.358 36.006 120.801 35.6327 119.436 34.886C118.07 34.1393 117.004 33.0727 116.236 31.686C115.468 30.2993 115.084 28.678 115.084 26.822C115.084 24.966 115.457 23.3447 116.204 21.958C116.972 20.5713 118.038 19.5047 119.404 18.758C120.769 18.0113 122.337 17.638 124.108 17.638C125.836 17.638 127.372 18.0007 128.716 18.726C130.06 19.4513 131.105 20.486 131.852 21.83C132.62 23.174 133.003 24.742 133.003 26.534ZM127.404 25.094C127.404 24.1553 127.084 23.4087 126.444 22.854C125.804 22.2993 125.004 22.022 124.044 22.022C123.126 22.022 122.348 22.2887 121.708 22.822C121.089 23.3553 120.705 24.1127 120.556 25.094H127.404ZM141.362 20.87C142.002 19.8887 142.802 19.1207 143.762 18.566C144.722 17.99 145.789 17.702 146.962 17.702V23.494H145.458C144.093 23.494 143.069 23.7927 142.386 24.39C141.704 24.966 141.362 25.99 141.362 27.462V35.75H135.89V17.894H141.362V20.87ZM156.842 36.006C155.284 36.006 153.898 35.7393 152.682 35.206C151.466 34.6727 150.506 33.9473 149.802 33.03C149.098 32.0913 148.703 31.046 148.618 29.894H154.026C154.09 30.5127 154.378 31.014 154.89 31.398C155.402 31.782 156.031 31.974 156.778 31.974C157.46 31.974 157.983 31.846 158.346 31.59C158.73 31.3127 158.922 30.9607 158.922 30.534C158.922 30.022 158.655 29.6487 158.122 29.414C157.588 29.158 156.724 28.8807 155.53 28.582C154.25 28.2833 153.183 27.974 152.33 27.654C151.476 27.3127 150.74 26.79 150.122 26.086C149.503 25.3607 149.194 24.39 149.194 23.174C149.194 22.15 149.471 21.222 150.026 20.39C150.602 19.5367 151.434 18.8647 152.522 18.374C153.631 17.8833 154.943 17.638 156.458 17.638C158.698 17.638 160.458 18.1927 161.738 19.302C163.039 20.4113 163.786 21.8833 163.978 23.718H158.922C158.836 23.0993 158.559 22.6087 158.09 22.246C157.642 21.8833 157.044 21.702 156.298 21.702C155.658 21.702 155.167 21.83 154.826 22.086C154.484 22.3207 154.314 22.6513 154.314 23.078C154.314 23.59 154.58 23.974 155.114 24.23C155.668 24.486 156.522 24.742 157.674 24.998C158.996 25.3393 160.074 25.6807 160.906 26.022C161.738 26.342 162.463 26.8753 163.082 27.622C163.722 28.3473 164.052 29.3287 164.074 30.566C164.074 31.6113 163.775 32.55 163.178 33.382C162.602 34.1927 161.759 34.8327 160.65 35.302C159.562 35.7713 158.292 36.006 156.842 36.006ZM184.253 26.534C184.253 27.046 184.222 27.5793 184.158 28.134H171.774C171.859 29.2433 172.211 30.0967 172.83 30.694C173.47 31.27 174.248 31.558 175.166 31.558C176.531 31.558 177.48 30.982 178.014 29.83H183.838C183.539 31.0033 182.995 32.0593 182.206 32.998C181.438 33.9367 180.467 34.6727 179.294 35.206C178.12 35.7393 176.808 36.006 175.358 36.006C173.608 36.006 172.051 35.6327 170.686 34.886C169.32 34.1393 168.254 33.0727 167.486 31.686C166.718 30.2993 166.334 28.678 166.334 26.822C166.334 24.966 166.707 23.3447 167.454 21.958C168.222 20.5713 169.288 19.5047 170.654 18.758C172.019 18.0113 173.587 17.638 175.358 17.638C177.086 17.638 178.622 18.0007 179.966 18.726C181.31 19.4513 182.355 20.486 183.102 21.83C183.87 23.174 184.253 24.742 184.253 26.534ZM178.654 25.094C178.654 24.1553 178.334 23.4087 177.694 22.854C177.054 22.2993 176.254 22.022 175.294 22.022C174.376 22.022 173.598 22.2887 172.958 22.822C172.339 23.3553 171.955 24.1127 171.806 25.094H178.654Z" fill="white"/>
</svg>
