<svg width="93" height="93" viewBox="0 0 93 93" fill="none" xmlns="http://www.w3.org/2000/svg">
<path fill-rule="evenodd" clip-rule="evenodd" d="M72.8232 20.1683C72.8232 16.9396 75.4405 14.3222 78.6692 14.3222C81.8978 14.3222 84.5151 16.9396 84.5151 20.1683C84.5151 23.3969 81.8978 26.0142 78.6692 26.0142C76.6299 26.0142 74.8347 24.9702 73.7886 23.3874C73.7855 23.3813 73.7823 23.3753 73.7789 23.3692L73.7706 23.3545C73.7535 23.3252 73.7346 23.2976 73.7141 23.2719C73.1497 22.3724 72.8232 21.3084 72.8232 20.1683ZM72.2215 23.4536C71.7182 22.4677 71.4343 21.3511 71.4343 20.1683C71.4343 16.1725 74.6735 12.9333 78.6692 12.9333C82.6648 12.9333 85.904 16.1725 85.904 20.1683C85.904 24.164 82.6648 27.4031 78.6692 27.4031C76.3547 27.4031 74.294 26.3163 72.9697 24.6251L63.8609 29.9344C63.5295 30.1275 63.1043 30.0155 62.9112 29.6841C62.7181 29.3527 62.8301 28.9275 63.1614 28.7345L72.2215 23.4536ZM63.9874 64.4202C63.6628 64.2158 63.234 64.3133 63.0297 64.6378C62.8253 64.9623 62.9227 65.3911 63.2473 65.5955L72.2322 71.253C71.7222 72.2439 71.4343 73.3679 71.4343 74.5591C71.4343 78.5547 74.6735 81.7939 78.6692 81.7939C82.6648 81.7939 85.904 78.5547 85.904 74.5591C85.904 70.5633 82.6648 67.3242 78.6692 67.3242C76.3626 67.3242 74.3082 68.4035 72.9834 70.0847L63.9874 64.4202ZM72.8232 74.5591C72.8232 73.4186 73.1498 72.3545 73.7145 71.4549C73.7299 71.4354 73.7446 71.4148 73.7581 71.3933C73.7623 71.3867 73.7661 71.3802 73.77 71.3736C73.7765 71.3626 73.7826 71.3514 73.7885 71.3401C74.8345 69.7572 76.6299 68.7131 78.6692 68.7131C81.8978 68.7131 84.5151 71.3304 84.5151 74.5591C84.5151 77.7877 81.8978 80.405 78.6692 80.405C75.4405 80.405 72.8232 77.7877 72.8232 74.5591ZM19.5887 24.6672C18.2634 26.3343 16.2177 27.4031 13.9224 27.4031C9.92679 27.4031 6.68759 24.164 6.68759 20.1683C6.68759 16.1725 9.92679 12.9333 13.9224 12.9333C17.9182 12.9333 21.1573 16.1725 21.1573 20.1683C21.1573 21.3704 20.8641 22.504 20.3454 23.5016L28.4648 29.1693C28.7793 29.3888 28.8563 29.8217 28.6368 30.1361C28.4173 30.4507 27.9844 30.5276 27.6698 30.3082L19.5887 24.6672ZM18.8712 23.2818C19.4396 22.3803 19.7685 21.3127 19.7685 20.1683C19.7685 16.9396 17.1511 14.3222 13.9224 14.3222C10.6938 14.3222 8.07648 16.9396 8.07648 20.1683C8.07648 23.3969 10.6938 26.0142 13.9224 26.0142C15.9659 26.0142 17.7645 24.9658 18.8096 23.3775C18.8224 23.3533 18.837 23.3297 18.853 23.3067C18.8589 23.2983 18.8649 23.2899 18.8712 23.2818ZM27.8615 64.7076C28.1831 64.4985 28.6132 64.5896 28.8223 64.9111C29.0313 65.2327 28.9402 65.6629 28.6186 65.872L20.3542 71.2462C20.8663 72.2388 21.1555 73.3652 21.1555 74.5591C21.1555 78.5547 17.9163 81.7939 13.9207 81.7939C9.92494 81.7939 6.68579 78.5547 6.68579 74.5591C6.68579 70.5633 9.92494 67.3242 13.9207 67.3242C16.2245 67.3242 18.2768 68.401 19.6018 70.0788L27.8615 64.7076ZM19.7666 74.5591C19.7666 73.4014 19.4301 72.3223 18.8496 71.4143L18.8412 71.4018C18.8373 71.3957 18.8335 71.3896 18.8298 71.3835C17.788 69.7763 15.9786 68.7131 13.9207 68.7131C10.692 68.7131 8.07468 71.3304 8.07468 74.5591C8.07468 77.7877 10.692 80.405 13.9207 80.405C17.1493 80.405 19.7666 77.7877 19.7666 74.5591ZM37.4414 49.729C37.4414 49.3455 37.7523 49.0346 38.1359 49.0346C39.8902 49.0346 41.6051 49.5547 43.0638 50.5295C44.0899 51.215 44.9568 52.1039 45.6144 53.135V36.6482C45.6144 34.6641 44.8262 32.7612 43.4233 31.3583C42.0203 29.9553 40.1174 29.1671 38.1334 29.1671C36.1492 29.1671 34.2464 29.9553 32.8434 31.3583C31.4404 32.7612 30.6523 34.6641 30.6523 36.6482V38.0237C30.6523 38.3183 30.4664 38.5808 30.1886 38.6786C28.1591 39.394 26.4481 40.8043 25.3584 42.6599C24.2686 44.5155 23.8705 46.6968 24.2343 48.8177C24.5981 50.9386 25.7005 52.8624 27.3464 54.2487C28.1623 54.9359 29.0695 55.4721 30.037 55.8387C30.1478 55.8508 30.2509 55.8892 30.3397 55.9472C31.2414 56.2521 32.1915 56.4115 33.1658 56.4109L34.8556 56.3926C35.2391 56.3883 35.5534 56.6959 35.5575 57.0794C35.5617 57.4629 35.2542 57.7772 34.8707 57.7814L33.1774 57.7998L33.1705 57.7999C32.3102 57.8007 31.4674 57.6936 30.6548 57.4875V57.9046C30.6548 59.3842 31.0936 60.8306 31.9156 62.0608C32.7376 63.291 33.9061 64.2499 35.273 64.8161C36.64 65.3823 38.1442 65.5305 39.5954 65.2419C41.0466 64.9532 42.3796 64.2407 43.4259 63.1945C44.4721 62.1482 45.1846 60.8152 45.4733 59.364C45.5627 58.9141 45.6102 58.459 45.6163 58.0046L45.6159 57.9499C45.6149 57.9349 45.6144 57.9197 45.6144 57.9046V57.7083C45.5905 56.7968 45.4 55.8926 45.0475 55.0416C44.4813 53.6746 43.5224 52.5062 42.2922 51.6843C41.0619 50.8622 39.6155 50.4234 38.1359 50.4234C37.7523 50.4234 37.4414 50.1125 37.4414 49.729ZM47.0042 53.1397V36.6482C47.0042 34.6641 47.7924 32.7612 49.1953 31.3583C50.5983 29.9553 52.5011 29.1671 54.4853 29.1671C56.4694 29.1671 58.3723 29.9553 59.7752 31.3583C61.1782 32.7612 61.9663 34.6641 61.9663 36.6482V38.0237C61.9663 38.3183 62.1522 38.5808 62.4299 38.6786C64.4595 39.394 66.1705 40.8043 67.2602 42.6599C68.3499 44.5155 68.7482 46.6968 68.3843 48.8177C68.0205 50.9386 66.9181 52.8624 65.2723 54.2487C63.6279 55.6338 62.0055 56.2178 59.8515 56.2158C59.8319 56.2158 59.8122 56.2167 59.7926 56.2183L57.6972 56.395C57.3149 56.4272 57.0312 56.7632 57.0635 57.1453C57.0957 57.5275 57.4316 57.8112 57.8138 57.779L59.8802 57.6047C60.6191 57.6037 61.3102 57.5402 61.9668 57.4088V57.9046C61.9668 59.3842 61.5281 60.8306 60.7061 62.0608C59.884 63.291 58.7156 64.2499 57.3486 64.8161C55.9816 65.3823 54.4774 65.5305 53.0262 65.2419C51.575 64.9532 50.2421 64.2407 49.1958 63.1945C48.1496 62.1482 47.4371 60.8152 47.1484 59.364C47.0589 58.9141 47.0114 58.4591 47.0053 58.0046C47.0061 57.9379 47.0061 57.8712 47.0053 57.8046C47.0179 56.8605 47.2092 55.9226 47.5741 55.0416C48.1403 53.6746 49.0992 52.5062 50.3295 51.6843C51.5598 50.8622 53.0061 50.4234 54.4858 50.4234C54.8693 50.4234 55.1802 50.1125 55.1802 49.729C55.1802 49.3455 54.8693 49.0346 54.4858 49.0346C52.7314 49.0346 51.0165 49.5547 49.5578 50.5295C48.5301 51.2161 47.6622 52.1066 47.0042 53.1397ZM63.3557 57.0101C64.3387 56.6358 65.2577 56.0769 66.167 55.311C68.0635 53.7135 69.3339 51.4966 69.7532 49.0525C70.1724 46.6084 69.7136 44.0948 68.4579 41.9565C67.286 39.961 65.4906 38.4125 63.3552 37.5445V36.6482C63.3552 34.2957 62.4207 32.0396 60.7573 30.3761C59.0938 28.7127 56.8377 27.7782 54.4853 27.7782C52.1328 27.7782 49.8767 28.7127 48.2133 30.3761C47.3933 31.1961 46.7504 32.1601 46.3093 33.2087C45.8682 32.1601 45.2253 31.1961 44.4053 30.3761C42.7419 28.7127 40.4858 27.7782 38.1334 27.7782C35.7809 27.7782 33.5248 28.7127 31.8613 30.3761C30.1979 32.0396 29.2634 34.2957 29.2634 36.6482V37.5445C27.128 38.4125 25.3326 39.961 24.1608 41.9565C22.9049 44.0948 22.4461 46.6084 22.8654 49.0525C23.2847 51.4966 24.555 53.7135 26.4516 55.311C27.3069 56.0314 28.2544 56.6098 29.266 57.0271V57.9046C29.266 59.6588 29.7861 61.3737 30.7608 62.8324C31.7354 64.291 33.1208 65.428 34.7415 66.0993C36.3623 66.7707 38.1458 66.9463 39.8663 66.6041C41.587 66.2618 43.1674 65.4171 44.4079 64.1765C45.2233 63.3611 45.8677 62.3989 46.3108 61.3465C46.7539 62.3989 47.3984 63.3611 48.2137 64.1765C49.4542 65.4171 51.0347 66.2618 52.7553 66.6041C54.4759 66.9463 56.2594 66.7707 57.8801 66.0993C59.5009 65.428 60.8862 64.291 61.8609 62.8324C62.8355 61.3737 63.3557 59.6588 63.3557 57.9046V57.0101ZM54.4833 37.5888C54.8669 37.5888 55.1777 37.8997 55.1777 38.2833V39.1008C55.1777 40.4345 55.7075 41.7134 56.6506 42.6564C57.5936 43.5995 58.8725 44.1292 60.2061 44.1292H61.0237C61.4073 44.1292 61.7182 44.4401 61.7182 44.8236C61.7182 45.2072 61.4073 45.5181 61.0237 45.5181H60.2061C58.5042 45.5181 56.872 44.842 55.6685 43.6385C54.4649 42.435 53.7888 40.8028 53.7888 39.1008V38.2833C53.7888 37.8997 54.0998 37.5888 54.4833 37.5888ZM38.8273 38.2833C38.8273 37.8997 38.5164 37.5888 38.1329 37.5888C37.7494 37.5888 37.4385 37.8997 37.4385 38.2833V39.1008C37.4385 40.4345 36.9086 41.7134 35.9657 42.6564C35.0226 43.5995 33.7436 44.1292 32.41 44.1292H31.5924C31.2089 44.1292 30.898 44.4401 30.898 44.8236C30.898 45.2072 31.2089 45.5181 31.5924 45.5181H32.41C34.112 45.5181 35.7443 44.842 36.9477 43.6385C38.1512 42.435 38.8273 40.8028 38.8273 39.1008V38.2833Z" fill="#6C0BDB"/>
</svg>
