<svg width="89" height="76" viewBox="0 0 89 76" fill="none" xmlns="http://www.w3.org/2000/svg">
<path fill-rule="evenodd" clip-rule="evenodd" d="M56.7416 0.768466C56.3769 0.649679 55.985 0.849003 55.8662 1.21367C55.7474 1.57834 55.9467 1.97025 56.3114 2.08905C63.8375 4.54072 70.4021 9.34729 75.0589 15.8182C79.7157 22.2893 82.2239 30.0904 82.2209 38.0981V47.7251C82.2209 48.0645 82.4644 48.3471 82.7864 48.4076L82.6859 48.5224L78.3474 43.5641C78.0949 43.2754 77.6561 43.2462 77.3675 43.4988C77.0789 43.7514 77.0496 44.1901 77.3022 44.4787L82.1633 50.0342C82.2952 50.185 82.4856 50.2714 82.6859 50.2714C82.8862 50.2714 83.0766 50.185 83.2085 50.0342L88.0696 44.4787C88.3222 44.1901 88.2929 43.7514 88.0043 43.4988C87.7156 43.2462 87.2769 43.2754 87.0244 43.5641L83.6098 47.4665V38.0986C83.6128 29.8011 81.0139 21.7155 76.1862 15.007C71.3583 8.29831 64.5503 3.3122 56.7416 0.768466ZM38.3198 11.9974C38.148 11.8603 37.9216 11.8124 37.7091 11.8685C35.3883 12.4806 33.1591 13.3986 31.0802 14.5981C30.8891 14.7084 30.7618 14.9028 30.7372 15.1221L29.9679 21.9682C29.4472 22.4418 28.949 22.9399 28.4754 23.4607L21.6267 24.23C21.4078 24.2545 21.2136 24.3815 21.1032 24.5721C19.898 26.6539 18.9747 28.8866 18.3574 31.2115C18.3009 31.4241 18.3486 31.651 18.4859 31.8229L20.7183 34.6185C20.9577 34.9182 21.3946 34.9671 21.6943 34.7278C21.994 34.4885 22.0429 34.0515 21.8036 33.7518L19.7914 31.232C20.344 29.2585 21.13 27.358 22.1327 25.5707L28.893 24.8115C29.0635 24.7923 29.2209 24.7106 29.3349 24.5823C29.8844 23.9631 30.4703 23.3772 31.0896 22.8276C31.2179 22.7137 31.2995 22.5563 31.3187 22.3858L32.0779 15.6288C33.862 14.6314 35.7588 13.8503 37.7279 13.3023L43.0438 17.55C43.1778 17.6571 43.3469 17.7108 43.5183 17.7006C44.3457 17.6516 45.1753 17.6516 46.0028 17.7006C46.174 17.7108 46.343 17.6571 46.4771 17.5501L51.7925 13.3053C53.7659 13.858 55.6665 14.644 57.4538 15.6467L58.213 22.407C58.2322 22.5776 58.3138 22.735 58.4422 22.8489C59.0614 23.3985 59.6473 23.9844 60.1968 24.6036C60.3108 24.7319 60.4681 24.8136 60.6387 24.8328L67.3969 25.5921C68.4016 27.378 69.1892 29.2777 69.7428 31.2506L65.4958 36.5658C65.3887 36.6999 65.335 36.869 65.3452 37.0403C65.3941 37.8678 65.3941 38.6974 65.3452 39.5248C65.335 39.6961 65.3886 39.8651 65.4957 39.9991L69.7408 45.3151C69.192 47.2878 68.4101 49.1881 67.4115 50.9759L64.2077 51.3357C63.8265 51.3785 63.5523 51.7222 63.5951 52.1033C63.6378 52.4844 63.9815 52.7588 64.3627 52.7159L67.9183 52.3166C68.1377 52.2919 68.3322 52.1645 68.4424 51.9733C69.6428 49.8908 70.5616 47.6582 71.1747 45.334C71.2307 45.1216 71.1829 44.8952 71.0458 44.7235L66.7458 39.3389C66.779 38.6351 66.779 37.9302 66.7458 37.2264L71.0484 31.8417C71.1858 31.6697 71.2336 31.4426 71.1769 31.2298C70.5585 28.9051 69.6332 26.673 68.4253 24.5927C68.315 24.4025 68.1209 24.2758 67.9024 24.2513L61.0563 23.482C60.5827 22.9612 60.0846 22.4631 59.5638 21.9895L58.7945 15.1408C58.77 14.9219 58.643 14.7277 58.4524 14.6173C56.3706 13.4121 54.1379 12.4887 51.813 11.8714C51.6003 11.8149 51.3735 11.8626 51.2015 12L45.8168 16.3C45.1131 16.2667 44.4081 16.2667 43.7043 16.2999L38.3198 11.9974ZM21.8022 42.7762C22.0415 42.4766 21.9928 42.0396 21.6931 41.8002C21.3935 41.5608 20.9565 41.6096 20.7171 41.9092L18.4834 44.7047C18.3459 44.8768 18.2981 45.1039 18.3548 45.3167C18.9732 47.6415 19.8985 49.8735 21.1064 51.9539C21.2162 52.143 21.4088 52.2694 21.6261 52.2949L28.4795 53.0977C28.9535 53.6191 29.452 54.1176 29.9733 54.5916L30.7425 61.4403C30.7671 61.6597 30.8946 61.8542 31.0858 61.9644C33.1683 63.1649 35.4009 64.0837 37.7252 64.6966C37.9376 64.7528 38.164 64.705 38.3355 64.5679L43.7202 60.2678C44.424 60.3011 45.129 60.3011 45.8328 60.2678L51.2173 64.5704C51.3893 64.7079 51.6165 64.7556 51.8293 64.699C54.154 64.0805 56.386 63.1553 58.4665 61.9474C58.6566 61.837 58.7833 61.6429 58.8078 61.4244L59.2072 57.8701C59.2501 57.489 58.9758 57.1453 58.5946 57.1025C58.2135 57.0596 57.8698 57.3339 57.827 57.715L57.467 60.919C55.6811 61.9237 53.7814 62.7113 51.8084 63.2649L46.4933 59.0178C46.3591 58.9107 46.1902 58.857 46.0188 58.8671C45.1913 58.9161 44.3617 58.9161 43.5342 58.8671C43.3629 58.857 43.194 58.9106 43.0599 59.0178L37.744 63.2629C35.7713 62.7141 33.8709 61.9321 32.0832 60.9336L31.324 54.174C31.3049 54.0035 31.2232 53.8461 31.0949 53.7322C30.4757 53.1827 29.8898 52.5966 29.3402 51.9775C29.227 51.85 29.0709 51.7686 28.9016 51.7488L22.1358 50.9562C21.1305 49.1698 20.3427 47.2694 19.7889 45.2958L21.8022 42.7762ZM34.7979 38.2694C34.7979 32.7714 39.255 28.3143 44.753 28.3143C50.2511 28.3143 54.7081 32.7714 54.7081 38.2694C54.7081 43.7675 50.2511 48.2246 44.753 48.2246C39.255 48.2246 34.7979 43.7675 34.7979 38.2694ZM44.753 26.9254C38.4879 26.9254 33.409 32.0043 33.409 38.2694C33.409 44.5346 38.4879 49.6135 44.753 49.6135C51.0181 49.6135 56.097 44.5346 56.097 38.2694C56.097 32.0043 51.0181 26.9254 44.753 26.9254ZM6.81818 27.3603C6.68631 27.2096 6.4958 27.1231 6.29556 27.1231C6.0953 27.1231 5.9048 27.2096 5.77293 27.3603L0.911823 32.9159C0.659268 33.2045 0.688509 33.6432 0.977147 33.8958C1.26579 34.1483 1.70451 34.1191 1.95706 33.8304L5.36819 29.932V38.3701C5.36514 46.6705 8.01062 54.7577 12.9231 61.4664C17.8356 68.175 24.7615 73.159 32.7028 75.7013C33.068 75.8182 33.459 75.6169 33.5759 75.2516C33.6928 74.8864 33.4915 74.4954 33.1262 74.3785C25.4637 71.9254 18.7822 67.1168 14.0437 60.6457C9.30525 54.1748 6.75408 46.3753 6.75708 38.3705V29.3996L10.634 33.8304C10.8866 34.1191 11.3253 34.1483 11.614 33.8958C11.9026 33.6432 11.9318 33.2045 11.6793 32.9159L6.81818 27.3603Z" fill="#6C0BDB"/>
</svg>
