<svg width="90" height="35" viewBox="0 0 90 35" fill="none" xmlns="http://www.w3.org/2000/svg">
<path d="M0.75684 16.822C0.75684 14.966 1.13017 13.3447 1.87684 11.958C2.64484 10.5713 3.70084 9.50467 5.04484 8.758C6.41017 8.01133 7.96751 7.638 9.71684 7.638C11.9568 7.638 13.8235 8.22467 15.3168 9.398C16.8315 10.5713 17.8235 12.2247 18.2928 14.358H12.4688C11.9782 12.9927 11.0288 12.31 9.62084 12.31C8.61817 12.31 7.81817 12.7047 7.22084 13.494C6.62351 14.262 6.32484 15.3713 6.32484 16.822C6.32484 18.2727 6.62351 19.3927 7.22084 20.182C7.81817 20.95 8.61817 21.334 9.62084 21.334C11.0288 21.334 11.9782 20.6513 12.4688 19.286H18.2928C17.8235 21.3767 16.8315 23.0193 15.3168 24.214C13.8022 25.4087 11.9355 26.006 9.71684 26.006C7.96751 26.006 6.41017 25.6327 5.04484 24.886C3.70084 24.1393 2.64484 23.0727 1.87684 21.686C1.13017 20.2993 0.75684 18.678 0.75684 16.822ZM26.6918 10.87C27.3318 9.88867 28.1318 9.12067 29.0918 8.566C30.0518 7.99 31.1185 7.702 32.2918 7.702V13.494H30.7878C29.4225 13.494 28.3985 13.7927 27.7158 14.39C27.0332 14.966 26.6918 15.99 26.6918 17.462V25.75H21.2198V7.894H26.6918V10.87ZM37.6593 6.038C36.6993 6.038 35.91 5.76067 35.2913 5.206C34.694 4.63 34.3953 3.926 34.3953 3.094C34.3953 2.24067 34.694 1.53667 35.2913 0.981998C35.91 0.405998 36.6993 0.117998 37.6593 0.117998C38.598 0.117998 39.366 0.405998 39.9633 0.981998C40.582 1.53667 40.8913 2.24067 40.8913 3.094C40.8913 3.926 40.582 4.63 39.9633 5.206C39.366 5.76067 38.598 6.038 37.6593 6.038ZM40.3793 7.894V25.75H34.9073V7.894H40.3793ZM51.6088 26.006C50.0515 26.006 48.6648 25.7393 47.4488 25.206C46.2328 24.6727 45.2728 23.9473 44.5688 23.03C43.8648 22.0913 43.4702 21.046 43.3848 19.894H48.7928C48.8568 20.5127 49.1448 21.014 49.6568 21.398C50.1688 21.782 50.7982 21.974 51.5448 21.974C52.2275 21.974 52.7502 21.846 53.1128 21.59C53.4968 21.3127 53.6888 20.9607 53.6888 20.534C53.6888 20.022 53.4222 19.6487 52.8888 19.414C52.3555 19.158 51.4915 18.8807 50.2968 18.582C49.0168 18.2833 47.9502 17.974 47.0968 17.654C46.2435 17.3127 45.5075 16.79 44.8888 16.086C44.2702 15.3607 43.9608 14.39 43.9608 13.174C43.9608 12.15 44.2382 11.222 44.7928 10.39C45.3688 9.53667 46.2008 8.86467 47.2888 8.374C48.3982 7.88333 49.7102 7.638 51.2248 7.638C53.4648 7.638 55.2248 8.19267 56.5048 9.302C57.8062 10.4113 58.5528 11.8833 58.7448 13.718H53.6888C53.6035 13.0993 53.3262 12.6087 52.8568 12.246C52.4088 11.8833 51.8115 11.702 51.0648 11.702C50.4248 11.702 49.9342 11.83 49.5928 12.086C49.2515 12.3207 49.0808 12.6513 49.0808 13.078C49.0808 13.59 49.3475 13.974 49.8808 14.23C50.4355 14.486 51.2888 14.742 52.4408 14.998C53.7635 15.3393 54.8408 15.6807 55.6728 16.022C56.5048 16.342 57.2302 16.8753 57.8488 17.622C58.4888 18.3473 58.8195 19.3287 58.8408 20.566C58.8408 21.6113 58.5422 22.55 57.9448 23.382C57.3688 24.1927 56.5262 24.8327 55.4168 25.302C54.3288 25.7713 53.0595 26.006 51.6088 26.006ZM67.6606 10.422C68.1939 9.59 68.9299 8.918 69.8686 8.406C70.8073 7.894 71.9059 7.638 73.1646 7.638C74.6366 7.638 75.9699 8.01133 77.1646 8.758C78.3593 9.50467 79.2979 10.5713 79.9806 11.958C80.6846 13.3447 81.0366 14.9553 81.0366 16.79C81.0366 18.6247 80.6846 20.246 79.9806 21.654C79.2979 23.0407 78.3593 24.118 77.1646 24.886C75.9699 25.6327 74.6366 26.006 73.1646 26.006C71.9273 26.006 70.8286 25.75 69.8686 25.238C68.9299 24.726 68.1939 24.0647 67.6606 23.254V34.262H62.1886V7.894H67.6606V10.422ZM75.4686 16.79C75.4686 15.4247 75.0846 14.358 74.3166 13.59C73.5699 12.8007 72.6419 12.406 71.5326 12.406C70.4446 12.406 69.5166 12.8007 68.7486 13.59C68.0019 14.3793 67.6286 15.4567 67.6286 16.822C67.6286 18.1873 68.0019 19.2647 68.7486 20.054C69.5166 20.8433 70.4446 21.238 71.5326 21.238C72.6206 21.238 73.5486 20.8433 74.3166 20.054C75.0846 19.2433 75.4686 18.1553 75.4686 16.79ZM86.4673 26.006C85.5073 26.006 84.718 25.7287 84.0993 25.174C83.502 24.598 83.2033 23.894 83.2033 23.062C83.2033 22.2087 83.502 21.494 84.0993 20.918C84.718 20.342 85.5073 20.054 86.4673 20.054C87.406 20.054 88.174 20.342 88.7713 20.918C89.39 21.494 89.6993 22.2087 89.6993 23.062C89.6993 23.894 89.39 24.598 88.7713 25.174C88.174 25.7287 87.406 26.006 86.4673 26.006Z" fill="white"/>
</svg>
