<svg width="133" height="31" viewBox="0 0 133 31" fill="none" xmlns="http://www.w3.org/2000/svg">
<path d="M0.883567 23.75V0.477272H16.2927V4.53409H5.80402V10.0795H15.2699V14.1364H5.80402V23.75H0.883567ZM24.2699 24.0795C23.1563 24.0795 22.1639 23.8864 21.2927 23.5C20.4214 23.1061 19.7321 22.5265 19.2245 21.7614C18.7245 20.9886 18.4745 20.0265 18.4745 18.875C18.4745 17.9053 18.6525 17.0909 19.0086 16.4318C19.3646 15.7727 19.8495 15.2424 20.4631 14.8409C21.0767 14.4394 21.7737 14.1364 22.554 13.9318C23.3419 13.7273 24.1677 13.5833 25.0313 13.5C26.0464 13.3939 26.8646 13.2955 27.4858 13.2045C28.1071 13.1061 28.5578 12.9621 28.8381 12.7727C29.1184 12.5833 29.2586 12.303 29.2586 11.9318V11.8636C29.2586 11.1439 29.0313 10.5871 28.5767 10.1932C28.1298 9.79924 27.4934 9.60227 26.6677 9.60227C25.7964 9.60227 25.1033 9.79545 24.5881 10.1818C24.073 10.5606 23.7321 11.0379 23.5654 11.6136L19.0881 11.25C19.3154 10.1894 19.7624 9.27273 20.429 8.5C21.0957 7.7197 21.9555 7.12121 23.0086 6.70454C24.0692 6.2803 25.2964 6.06818 26.6904 6.06818C27.6601 6.06818 28.5881 6.18182 29.4745 6.40909C30.3684 6.63636 31.1601 6.98864 31.8495 7.46591C32.5464 7.94318 33.0957 8.55682 33.4972 9.30682C33.8987 10.0492 34.0995 10.9394 34.0995 11.9773V23.75H29.5086V21.3295H29.3722C29.0919 21.875 28.7169 22.3561 28.2472 22.7727C27.7775 23.1818 27.2131 23.5038 26.554 23.7386C25.8949 23.9659 25.1336 24.0795 24.2699 24.0795ZM25.6563 20.7386C26.3684 20.7386 26.9972 20.5985 27.5427 20.3182C28.0881 20.0303 28.5161 19.6439 28.8267 19.1591C29.1374 18.6742 29.2927 18.125 29.2927 17.5114V15.6591C29.1411 15.7576 28.9328 15.8485 28.6677 15.9318C28.4101 16.0076 28.1184 16.0795 27.7927 16.1477C27.4669 16.2083 27.1411 16.2652 26.8154 16.3182C26.4896 16.3636 26.1942 16.4053 25.929 16.4432C25.3608 16.5265 24.8646 16.6591 24.4404 16.8409C24.0161 17.0227 23.6866 17.2689 23.4517 17.5795C23.2169 17.8826 23.0995 18.2614 23.0995 18.7159C23.0995 19.375 23.3381 19.8788 23.8154 20.2273C24.3002 20.5682 24.9139 20.7386 25.6563 20.7386ZM42.6961 13.6591V23.75H37.8552V6.29545H42.4688V9.375H42.6733C43.0597 8.35985 43.7074 7.55682 44.6165 6.96591C45.5256 6.36742 46.6279 6.06818 47.9233 6.06818C49.1355 6.06818 50.1923 6.33333 51.0938 6.86364C51.9953 7.39394 52.6961 8.15151 53.1961 9.13636C53.6961 10.1136 53.9461 11.2803 53.9461 12.6364V23.75H49.1052V13.5C49.1127 12.4318 48.84 11.5985 48.287 11C47.7339 10.3939 46.9726 10.0909 46.0029 10.0909C45.3514 10.0909 44.7756 10.2311 44.2756 10.5114C43.7832 10.7917 43.3968 11.2008 43.1165 11.7386C42.8438 12.2689 42.7036 12.9091 42.6961 13.6591ZM57.8523 23.75V0.477272H67.0341C68.7993 0.477272 70.3031 0.814393 71.5455 1.48864C72.7879 2.1553 73.7349 3.08333 74.3864 4.27273C75.0455 5.45454 75.375 6.81818 75.375 8.36364C75.375 9.90909 75.0417 11.2727 74.375 12.4545C73.7084 13.6364 72.7425 14.5568 71.4773 15.2159C70.2197 15.875 68.697 16.2045 66.9091 16.2045H61.0569V12.2614H66.1137C67.0607 12.2614 67.841 12.0985 68.4546 11.7727C69.0758 11.4394 69.5379 10.9811 69.841 10.3977C70.1516 9.80682 70.3069 9.12879 70.3069 8.36364C70.3069 7.59091 70.1516 6.91667 69.841 6.34091C69.5379 5.75757 69.0758 5.30682 68.4546 4.98864C67.8334 4.66288 67.0455 4.5 66.091 4.5H62.7728V23.75H57.8523ZM82.9887 24.0795C81.875 24.0795 80.8826 23.8864 80.0114 23.5C79.1402 23.1061 78.4508 22.5265 77.9432 21.7614C77.4432 20.9886 77.1932 20.0265 77.1932 18.875C77.1932 17.9053 77.3713 17.0909 77.7273 16.4318C78.0834 15.7727 78.5682 15.2424 79.1819 14.8409C79.7955 14.4394 80.4925 14.1364 81.2728 13.9318C82.0607 13.7273 82.8864 13.5833 83.75 13.5C84.7652 13.3939 85.5834 13.2955 86.2046 13.2045C86.8258 13.1061 87.2766 12.9621 87.5569 12.7727C87.8372 12.5833 87.9773 12.303 87.9773 11.9318V11.8636C87.9773 11.1439 87.75 10.5871 87.2955 10.1932C86.8485 9.79924 86.2122 9.60227 85.3864 9.60227C84.5152 9.60227 83.822 9.79545 83.3069 10.1818C82.7917 10.5606 82.4508 11.0379 82.2841 11.6136L77.8069 11.25C78.0341 10.1894 78.4811 9.27273 79.1478 8.5C79.8144 7.7197 80.6743 7.12121 81.7273 6.70454C82.7879 6.2803 84.0152 6.06818 85.4091 6.06818C86.3788 6.06818 87.3069 6.18182 88.1932 6.40909C89.0872 6.63636 89.8788 6.98864 90.5682 7.46591C91.2652 7.94318 91.8144 8.55682 92.216 9.30682C92.6175 10.0492 92.8182 10.9394 92.8182 11.9773V23.75H88.2273V21.3295H88.091C87.8107 21.875 87.4357 22.3561 86.966 22.7727C86.4963 23.1818 85.9319 23.5038 85.2728 23.7386C84.6137 23.9659 83.8523 24.0795 82.9887 24.0795ZM84.375 20.7386C85.0872 20.7386 85.716 20.5985 86.2614 20.3182C86.8069 20.0303 87.2349 19.6439 87.5455 19.1591C87.8561 18.6742 88.0114 18.125 88.0114 17.5114V15.6591C87.8599 15.7576 87.6516 15.8485 87.3864 15.9318C87.1288 16.0076 86.8372 16.0795 86.5114 16.1477C86.1857 16.2083 85.8599 16.2652 85.5341 16.3182C85.2084 16.3636 84.9129 16.4053 84.6478 16.4432C84.0796 16.5265 83.5834 16.6591 83.1591 16.8409C82.7349 17.0227 82.4053 17.2689 82.1705 17.5795C81.9357 17.8826 81.8182 18.2614 81.8182 18.7159C81.8182 19.375 82.0569 19.8788 82.5341 20.2273C83.019 20.5682 83.6326 20.7386 84.375 20.7386ZM104.438 30.6591C102.869 30.6591 101.525 30.4432 100.403 30.0114C99.2898 29.5871 98.4035 29.0076 97.7444 28.2727C97.0853 27.5379 96.6572 26.7121 96.4603 25.7955L100.938 25.1932C101.074 25.5417 101.29 25.8674 101.585 26.1705C101.881 26.4735 102.271 26.7159 102.756 26.8977C103.248 27.0871 103.847 27.1818 104.551 27.1818C105.604 27.1818 106.472 26.9242 107.153 26.4091C107.843 25.9015 108.188 25.0492 108.188 23.8523V20.6591H107.983C107.771 21.1439 107.453 21.6023 107.028 22.0341C106.604 22.4659 106.059 22.8182 105.392 23.0909C104.725 23.3636 103.93 23.5 103.006 23.5C101.695 23.5 100.502 23.197 99.4262 22.5909C98.358 21.9773 97.5057 21.0417 96.8694 19.7841C96.2406 18.5189 95.9262 16.9205 95.9262 14.9886C95.9262 13.0114 96.2482 11.3598 96.8921 10.0341C97.536 8.70833 98.3921 7.71591 99.4603 7.05682C100.536 6.39773 101.714 6.06818 102.994 6.06818C103.972 6.06818 104.79 6.23485 105.449 6.56818C106.108 6.89394 106.638 7.30303 107.04 7.79545C107.449 8.2803 107.763 8.75758 107.983 9.22727H108.165V6.29545H112.972V23.9205C112.972 25.4053 112.608 26.6477 111.881 27.6477C111.153 28.6477 110.146 29.3977 108.858 29.8977C107.578 30.4053 106.104 30.6591 104.438 30.6591ZM104.54 19.8636C105.32 19.8636 105.979 19.6705 106.517 19.2841C107.063 18.8902 107.479 18.3295 107.767 17.6023C108.063 16.8674 108.21 15.9886 108.21 14.9659C108.21 13.9432 108.066 13.0568 107.778 12.3068C107.491 11.5492 107.074 10.9621 106.528 10.5455C105.983 10.1288 105.32 9.92045 104.54 9.92045C103.744 9.92045 103.074 10.1364 102.528 10.5682C101.983 10.9924 101.57 11.5833 101.29 12.3409C101.01 13.0985 100.869 13.9735 100.869 14.9659C100.869 15.9735 101.01 16.8447 101.29 17.5795C101.578 18.3068 101.991 18.8712 102.528 19.2727C103.074 19.6667 103.744 19.8636 104.54 19.8636ZM124.778 24.0909C122.983 24.0909 121.438 23.7273 120.142 23C118.854 22.2652 117.862 21.2273 117.165 19.8864C116.468 18.5379 116.119 16.9432 116.119 15.1023C116.119 13.3068 116.468 11.7311 117.165 10.375C117.862 9.01894 118.843 7.96212 120.108 7.20454C121.381 6.44697 122.873 6.06818 124.585 6.06818C125.737 6.06818 126.809 6.25379 127.801 6.625C128.801 6.98864 129.672 7.53788 130.415 8.27273C131.165 9.00758 131.748 9.93182 132.165 11.0455C132.581 12.1515 132.79 13.447 132.79 14.9318V16.2614H118.051V13.2614H128.233C128.233 12.5644 128.081 11.947 127.778 11.4091C127.475 10.8712 127.055 10.4508 126.517 10.1477C125.987 9.83712 125.369 9.68182 124.665 9.68182C123.93 9.68182 123.278 9.85227 122.71 10.1932C122.15 10.5265 121.71 10.9773 121.392 11.5455C121.074 12.1061 120.911 12.7311 120.903 13.4205V16.2727C120.903 17.1364 121.063 17.8826 121.381 18.5114C121.706 19.1402 122.165 19.625 122.756 19.9659C123.347 20.3068 124.047 20.4773 124.858 20.4773C125.396 20.4773 125.888 20.4015 126.335 20.25C126.782 20.0985 127.165 19.8712 127.483 19.5682C127.801 19.2652 128.044 18.8939 128.21 18.4545L132.688 18.75C132.46 19.8258 131.994 20.7652 131.29 21.5682C130.593 22.3636 129.691 22.9848 128.585 23.4318C127.487 23.8712 126.218 24.0909 124.778 24.0909Z" fill="white"/>
</svg>
