<svg width="94" height="93" viewBox="0 0 94 93" fill="none" xmlns="http://www.w3.org/2000/svg">
<path fill-rule="evenodd" clip-rule="evenodd" d="M72.7648 21.2042C71.0091 20.5551 69.1065 20.4114 67.2731 20.7894C65.4399 21.1673 63.7492 22.0519 62.3934 23.3423C61.0375 24.6329 60.0707 26.2778 59.6027 28.0902C59.5068 28.4616 59.128 28.6849 58.7567 28.589C58.3853 28.4932 58.162 28.1144 58.2579 27.743C58.7908 25.6791 59.8918 23.8059 61.4358 22.3363C62.9798 20.8667 64.905 19.8596 66.9928 19.4291C69.0804 18.9987 71.247 19.1623 73.2464 19.9014C75.2457 20.6406 76.9978 21.9255 78.3036 23.6103C79.6093 25.2952 80.4165 27.3124 80.6333 29.433C80.8502 31.5535 80.468 33.6924 79.5303 35.6067C78.5927 37.5209 77.1369 39.134 75.3286 40.2624C74.9129 40.5219 74.4825 40.7533 74.0401 40.9558C78.2436 41.9389 81.8567 44.9 84.2779 48.9689C84.4741 49.2985 84.3659 49.7247 84.0363 49.9209C83.7067 50.117 83.2805 50.0087 83.0844 49.6792C80.2775 44.9621 75.8667 41.9907 70.9704 41.9907C70.8532 41.9907 70.7429 41.9616 70.6461 41.9104C70.2008 41.9635 69.7514 41.9906 69.3 41.9909C68.9165 41.991 68.6054 41.6802 68.6052 41.2967C68.605 40.9132 68.9157 40.6022 69.2992 40.602C71.1711 40.6009 73.0053 40.0751 74.5932 39.0842C76.1813 38.0932 77.4596 36.6768 78.283 34.9958C79.1065 33.3147 79.442 31.4364 79.2516 29.5743C79.0612 27.7121 78.3524 25.9407 77.2057 24.4611C76.0591 22.9816 74.5205 21.8532 72.7648 21.2042ZM47.8915 36.6388C40.8856 36.6388 35.2062 42.3183 35.2062 49.3241C35.2062 56.33 40.8856 62.0095 47.8915 62.0095C54.8974 62.0095 60.5767 56.33 60.5767 49.3241C60.5767 42.3183 54.8974 36.6388 47.8915 36.6388ZM33.8173 49.3241C33.8173 41.5511 40.1185 35.2499 47.8915 35.2499C55.6644 35.2499 61.9656 41.5511 61.9656 49.3241C61.9656 55.3924 58.1253 60.5637 52.7423 62.54C54.9371 63.026 57.0555 63.8411 59.0234 64.9657C62.4136 66.9029 65.2394 69.6912 67.2217 73.0551C67.4165 73.3856 67.3065 73.8113 66.976 74.006C66.6456 74.2008 66.2199 74.0907 66.0252 73.7603C64.1655 70.6046 61.5146 67.9888 58.3343 66.1715C55.1541 64.3543 51.5547 63.3984 47.8918 63.3984C44.229 63.3984 40.6295 64.3543 37.4492 66.1715C34.2691 67.9888 31.618 70.6046 29.7585 73.7603C29.5638 74.0907 29.138 74.2008 28.8076 74.006C28.4772 73.8113 28.3672 73.3856 28.5619 73.0551C30.5442 69.6912 33.3701 66.9029 36.7602 64.9657C38.7279 63.8412 40.8463 63.0261 43.041 62.5401C37.6579 60.5638 33.8173 55.3925 33.8173 49.3241ZM26.4351 40.6018C26.4514 40.6018 26.4678 40.6018 26.4841 40.6018C26.512 40.6018 26.5396 40.6034 26.5666 40.6067C26.9119 40.6471 27.1797 40.9407 27.1795 41.2967C27.1793 41.6802 26.8682 41.991 26.4847 41.9909C26.4674 41.9908 26.4501 41.9908 26.4328 41.9907C23.4418 41.9962 20.4927 42.6952 17.8171 44.033C15.1266 45.3783 12.7868 47.3324 10.9838 49.7403C10.7539 50.0472 10.3186 50.1098 10.0116 49.8799C9.70464 49.65 9.64213 49.2147 9.87202 48.9078C11.8045 46.3271 14.3123 44.2325 17.196 42.7907C18.7359 42.0208 20.3603 41.4483 22.0309 41.0821C21.4876 40.8512 20.9609 40.5774 20.4561 40.2624C18.6478 39.134 17.192 37.5209 16.2543 35.6067C15.3166 33.6924 14.9345 31.5535 15.1514 29.433C15.3682 27.3124 16.1754 25.2952 17.4811 23.6103C18.7868 21.9255 20.539 20.6406 22.5383 19.9014C24.5377 19.1623 26.7042 18.9987 28.7919 19.4291C30.8796 19.8596 32.8048 20.8667 34.3489 22.3363C35.8929 23.8059 36.9939 25.6791 37.5267 27.743C37.6227 28.1144 37.3993 28.4932 37.0279 28.589C36.6566 28.6849 36.2779 28.4616 36.1819 28.0902C35.714 26.2778 34.7472 24.6329 33.3913 23.3423C32.0354 22.0519 30.3448 21.1673 28.5115 20.7894C26.6782 20.4114 24.7756 20.5551 23.0199 21.2042C21.2641 21.8532 19.7255 22.9816 18.5789 24.4611C17.4323 25.9407 16.7235 27.7121 16.533 29.5743C16.3426 31.4364 16.6781 33.3147 17.5016 34.9958C18.3251 36.6768 19.6034 38.0932 21.1914 39.0842C22.7652 40.0662 24.5806 40.5915 26.4351 40.6018Z" fill="#6C0BDB"/>
</svg>
