<svg width="209" height="49" viewBox="0 0 209 49" fill="none" xmlns="http://www.w3.org/2000/svg">
<path d="M14.8452 35.0625C15.5223 35.9479 15.8608 36.9635 15.8608 38.1094C15.8608 38.9948 15.6265 39.8281 15.1577 40.6094C14.741 41.3385 14.1421 41.9375 13.3608 42.4062C12.6317 42.875 11.7983 43.1094 10.8608 43.1094C9.92334 43.1094 9.06396 42.875 8.28271 42.4062C7.55355 41.9375 6.95459 41.3385 6.48584 40.6094C6.06917 39.8281 5.86084 38.9948 5.86084 38.1094C5.86084 37.1719 6.06917 36.3385 6.48584 35.6094C6.95459 34.8281 7.55355 34.2292 8.28271 33.8125C9.06396 33.3438 9.92334 33.1094 10.8608 33.1094C11.59 33.1094 12.2671 33.2396 12.8921 33.5L15.2358 30.5312C14.5067 29.6979 13.9858 28.7604 13.6733 27.7188C13.3608 26.625 13.2827 25.5312 13.439 24.4375L10.0796 23.2656C9.61084 23.9948 9.01188 24.5677 8.28271 24.9844C7.55355 25.401 6.74626 25.6094 5.86084 25.6094C4.92334 25.6094 4.06396 25.375 3.28271 24.9062C2.55355 24.4375 1.95459 23.8385 1.48584 23.1094C1.06917 22.3281 0.86084 21.4948 0.86084 20.6094C0.86084 19.6719 1.06917 18.8385 1.48584 18.1094C1.95459 17.3281 2.55355 16.7292 3.28271 16.3125C4.06396 15.8438 4.92334 15.6094 5.86084 15.6094C6.79834 15.6094 7.63167 15.8438 8.36084 16.3125C9.14209 16.7292 9.74105 17.3281 10.1577 18.1094C10.6265 18.8385 10.8608 19.6719 10.8608 20.6094C10.8608 20.7656 10.8608 20.8698 10.8608 20.9219L14.2202 22.0938C14.741 21.0521 15.4702 20.1927 16.4077 19.5156C17.3452 18.8385 18.4129 18.3958 19.6108 18.1875V14.5938C18.5171 14.3333 17.6056 13.7604 16.8765 12.875C16.1994 11.9375 15.8608 10.8958 15.8608 9.75C15.8608 8.8125 16.0692 7.97917 16.4858 7.25C16.9546 6.46875 17.5535 5.86979 18.2827 5.45312C19.064 4.98438 19.9233 4.75 20.8608 4.75C21.7983 4.75 22.6317 4.98438 23.3608 5.45312C24.1421 5.86979 24.741 6.46875 25.1577 7.25C25.6265 7.97917 25.8608 8.8125 25.8608 9.75C25.8608 10.8958 25.4963 11.9375 24.7671 12.875C24.09 13.7604 23.2046 14.3333 22.1108 14.5938V18.1875C23.2567 18.3958 24.2983 18.8385 25.2358 19.5156C26.1733 20.1927 26.9285 21.0521 27.5015 22.0938L30.8608 20.9219C30.8608 20.8698 30.8608 20.8177 30.8608 20.7656C30.8608 20.7135 30.8608 20.6615 30.8608 20.6094C30.8608 19.6719 31.0692 18.8385 31.4858 18.1094C31.9546 17.3281 32.5535 16.7292 33.2827 16.3125C34.064 15.8438 34.9233 15.6094 35.8608 15.6094C36.7983 15.6094 37.6317 15.8438 38.3608 16.3125C39.1421 16.7292 39.741 17.3281 40.1577 18.1094C40.6265 18.8385 40.8608 19.6719 40.8608 20.6094C40.8608 21.4948 40.6265 22.3281 40.1577 23.1094C39.741 23.8385 39.1421 24.4375 38.3608 24.9062C37.6317 25.375 36.7983 25.6094 35.8608 25.6094C34.9754 25.6094 34.1681 25.401 33.439 24.9844C32.7098 24.5677 32.1108 23.9948 31.6421 23.2656L28.2827 24.4375C28.439 25.5312 28.3608 26.625 28.0483 27.7188C27.7879 28.7604 27.2671 29.724 26.4858 30.6094L28.8296 33.5C29.4546 33.2396 30.1317 33.1094 30.8608 33.1094C31.7983 33.1094 32.6317 33.3438 33.3608 33.8125C34.1421 34.2292 34.741 34.8281 35.1577 35.6094C35.6265 36.3385 35.8608 37.1719 35.8608 38.1094C35.8608 38.9948 35.6265 39.8281 35.1577 40.6094C34.741 41.3385 34.1421 41.9375 33.3608 42.4062C32.6317 42.875 31.7983 43.1094 30.8608 43.1094C29.9233 43.1094 29.064 42.875 28.2827 42.4062C27.5535 41.9375 26.9546 41.3385 26.4858 40.6094C26.0692 39.8281 25.8608 38.9948 25.8608 38.1094C25.8608 36.9635 26.1994 35.9479 26.8765 35.0625L24.5327 32.1719C23.3869 32.7969 22.1629 33.1094 20.8608 33.1094C19.5588 33.1094 18.3348 32.7969 17.189 32.1719L14.8452 35.0625Z" fill="white"/>
<path d="M53.3193 37.25V14.21H57.9593L72.1033 31.042V14.21H76.3593V37.25H71.7193L57.5433 20.386V37.25H53.3193ZM80.0083 37.25V14.21H101.224V18.466H84.2643V23.586H97.8963V27.874H84.2643V32.994H101.224V37.25H80.0083ZM104.124 37.25V36.066L112.796 25.73L104.124 15.394V14.21H108.7L115.612 22.402L122.46 14.21H127.068V15.394L118.364 25.73L127.068 36.034V37.25H122.46L115.58 29.09L108.7 37.25H104.124ZM134.797 37.25C133.986 37.25 133.24 37.0473 132.557 36.642C131.896 36.2367 131.362 35.7033 130.957 35.042C130.552 34.3593 130.349 33.6127 130.349 32.802V14.21H134.573V32.61C134.573 32.7167 134.605 32.8127 134.669 32.898C134.754 32.962 134.85 32.994 134.957 32.994H148.717C148.824 32.994 148.92 32.962 149.005 32.898C149.09 32.8127 149.133 32.7167 149.133 32.61V14.21H153.389V32.802C153.389 33.6127 153.186 34.3593 152.781 35.042C152.376 35.7033 151.832 36.2367 151.149 36.642C150.488 37.0473 149.752 37.25 148.941 37.25H134.797ZM161.265 37.25C160.454 37.25 159.708 37.0473 159.025 36.642C158.364 36.2367 157.83 35.7033 157.425 35.042C157.02 34.3593 156.817 33.6127 156.817 32.802V31.042H161.041V32.61C161.041 32.7167 161.073 32.8127 161.137 32.898C161.222 32.962 161.318 32.994 161.425 32.994H175.217C175.324 32.994 175.409 32.962 175.473 32.898C175.558 32.8127 175.601 32.7167 175.601 32.61V28.226C175.601 28.1193 175.558 28.034 175.473 27.97C175.409 27.906 175.324 27.874 175.217 27.874H161.265C160.454 27.874 159.708 27.6713 159.025 27.266C158.364 26.8607 157.83 26.3273 157.425 25.666C157.02 24.9833 156.817 24.226 156.817 23.394V18.658C156.817 17.8473 157.02 17.1113 157.425 16.45C157.83 15.7673 158.364 15.2233 159.025 14.818C159.708 14.4127 160.454 14.21 161.265 14.21H175.409C176.22 14.21 176.956 14.4127 177.617 14.818C178.3 15.2233 178.844 15.7673 179.249 16.45C179.654 17.1113 179.857 17.8473 179.857 18.658V20.418H175.601V18.85C175.601 18.7433 175.558 18.658 175.473 18.594C175.409 18.5087 175.324 18.466 175.217 18.466H161.425C161.318 18.466 161.222 18.5087 161.137 18.594C161.073 18.658 161.041 18.7433 161.041 18.85V23.234C161.041 23.3407 161.073 23.426 161.137 23.49C161.222 23.554 161.318 23.586 161.425 23.586H175.409C176.22 23.586 176.956 23.7887 177.617 24.194C178.3 24.5993 178.844 25.1433 179.249 25.826C179.654 26.4873 179.857 27.234 179.857 28.066V32.802C179.857 33.6127 179.654 34.3593 179.249 35.042C178.844 35.7033 178.3 36.2367 177.617 36.642C176.956 37.0473 176.22 37.25 175.409 37.25H161.265ZM187.703 37.25C186.871 37.25 186.124 37.0473 185.463 36.642C184.801 36.2367 184.268 35.7033 183.863 35.042C183.457 34.3807 183.255 33.6447 183.255 32.834V31.458H187.447V32.674C187.447 32.7807 187.479 32.8767 187.543 32.962C187.628 33.026 187.724 33.058 187.831 33.058H201.495C201.601 33.058 201.697 33.026 201.783 32.962C201.868 32.8767 201.911 32.7807 201.911 32.674V28.066C201.911 27.9593 201.868 27.874 201.783 27.81C201.697 27.7247 201.601 27.682 201.495 27.682H187.223V23.49H200.599C200.705 23.49 200.791 23.458 200.855 23.394C200.94 23.3087 200.983 23.2127 200.983 23.106V18.786C200.983 18.6793 200.94 18.594 200.855 18.53C200.791 18.4447 200.705 18.402 200.599 18.402H187.831C187.724 18.402 187.628 18.4447 187.543 18.53C187.479 18.594 187.447 18.6793 187.447 18.786V20.29H183.255V18.626C183.255 17.794 183.457 17.0473 183.863 16.386C184.268 15.7247 184.801 15.202 185.463 14.818C186.124 14.4127 186.871 14.21 187.703 14.21H200.759C201.591 14.21 202.337 14.4127 202.999 14.818C203.66 15.202 204.183 15.7247 204.567 16.386C204.972 17.0473 205.175 17.794 205.175 18.626V23.298C205.175 23.554 205.153 23.8207 205.111 24.098C205.068 24.354 205.004 24.5993 204.919 24.834C205.303 25.2393 205.591 25.7193 205.783 26.274C205.996 26.8073 206.103 27.3513 206.103 27.906V32.834C206.103 33.6447 205.9 34.3807 205.495 35.042C205.089 35.7033 204.556 36.2367 203.895 36.642C203.233 37.0473 202.497 37.25 201.687 37.25H187.703Z" fill="#E6E1E5"/>
</svg>
