<svg width="76" height="39" viewBox="0 0 76 39" fill="none" xmlns="http://www.w3.org/2000/svg">
<path fill-rule="evenodd" clip-rule="evenodd" d="M52.5483 23.2029C54.4097 23.1867 55.9341 24.4701 56.4469 25.7284C62.5666 28.5922 62.2782 27.4862 60.0764 32.1944C59.5393 33.3429 58.8396 35.1204 58.2081 35.9293C56.4819 36.2074 54.4705 34.1183 53.1596 34.2443C52.551 34.0425 51.6685 34.2248 50.9856 34.0152C50.2304 33.7838 49.7213 33.3591 49.2668 33.0576C48.557 32.9467 48.4339 33.5932 46.9449 33.3329C46.414 32.38 45.8096 30.6673 45.383 29.587C43.6308 25.1514 42.9561 25.69 47.7499 23.943C48.7441 23.5806 50.7661 22.5454 51.8962 22.541L52.5483 23.2032V23.2029ZM41.9626 14.0932V36.0635C41.9626 37.5246 43.2565 38.7909 44.2354 38.7909C46.0904 38.7909 47.4173 38.2933 47.4173 36.0635C48.2704 36.1345 48.0334 36.5369 48.6712 37.0826C50.482 38.6318 51.6504 38.9425 54.3872 38.9425C57.4594 38.9425 59.9215 37.0113 61.389 34.5803C61.5548 34.3054 61.6079 34.2137 61.7483 33.8788C62.6118 31.8204 62.7208 31.2428 62.7208 28.4877C62.7208 26.0533 62.1751 23.2765 60.5659 21.5515C59.7979 20.7284 59.1194 20.0625 58.1155 19.4562C56.2359 18.3213 53.4983 17.999 51.3722 18.6543C51.1762 18.7145 50.7559 18.8447 50.5778 18.9205C50.115 19.1169 50.2072 19.1296 49.838 19.3927C49.2925 19.7811 49.0769 19.899 48.5868 20.4145C47.9878 21.0449 48.2448 21.3251 47.4173 21.5177C47.4327 20.8325 47.5689 20.9156 47.5689 20.1541V13.9419C47.5689 12.6054 46.4861 11.3659 45.4478 11.3659C44.2358 11.3659 43.4123 11.192 42.536 12.2424C42.1361 12.7216 41.9626 13.2573 41.9626 14.0932Z" fill="white"/>
<path fill-rule="evenodd" clip-rule="evenodd" d="M11.9616 23.7912C11.9616 26.3445 11.8745 27.7733 14.5043 29.4304C17.2415 31.1556 21.9618 31.1876 21.9618 33.1853C21.9618 35.7055 17.5168 34.4225 16.1597 33.8359C14.8331 33.2623 12.9742 31.754 11.4625 33.1409C10.2376 34.2648 10.4905 35.805 12.0797 36.8552C12.7872 37.323 13.2317 37.5621 14.0606 37.9045C14.7611 38.1938 15.428 38.4683 16.3178 38.6778C20.2216 39.5974 26.8105 38.4856 26.8105 33.7914C26.8105 31.2126 27.1157 30.4693 25.3368 28.7499C22.8713 26.367 16.9618 26.2978 16.9618 24.0942C16.9618 22.0052 20.6448 22.8175 21.6406 23.2032C22.913 23.6964 23.255 24.2456 24.6892 24.2456C26.2703 24.2456 27.6024 21.7159 25.7946 20.2616C23.7844 18.6448 17.485 17.4317 14.166 19.9344C13.0126 20.8042 11.9618 22.2866 11.9618 23.7912H11.9616Z" fill="white"/>
<path fill-rule="evenodd" clip-rule="evenodd" d="M15.902 16.0567C13.1311 14.4069 14.789 11.7474 14.9341 9.85141C14.9639 9.26593 15.0137 9.48505 14.5605 9.07473C10.6065 6.04112 7.73262 4.80143 2.63682 4.2876C3.96419 4.45048 4.97852 4.34967 6.42732 4.63398C10.9887 5.52854 11.8766 6.89778 15.4473 8.79689C16.2078 7.88774 17.7724 6.34438 17.8717 5.15426C15.9362 2.26457 8.40661 2.75091 5.15702 3.04583C4.30306 3.12352 1.38942 3.63527 0.75 3.94207C0.903503 4.51609 0.960363 4.22804 1.69914 4.96285C2.2567 5.5173 2.80594 6.07757 3.35205 6.64347C4.2135 7.58594 5.59211 9.38632 6.07595 10.5862C7.08903 13.4699 7.31106 14.7862 9.65005 17.0121C10.8135 18.1191 12.5037 18.7485 14.2831 18.3841C15.5911 18.1162 16.6281 17.4241 17.2658 17.2756C17.1407 16.807 17.0703 16.8755 16.6974 16.632L15.9022 16.0565L15.902 16.0567Z" fill="white"/>
<path fill-rule="evenodd" clip-rule="evenodd" d="M27.5691 13.4892V36.5201C27.5691 37.5365 28.8294 38.7929 29.8419 38.7929C31.0607 38.7929 31.3131 38.9041 32.2342 38.0033C32.7253 37.5228 33.0238 37.3041 33.0238 36.3687V13.4892C33.0238 12.9154 32.6407 12.3864 32.3089 12.0825C30.5098 10.4365 27.5691 11.7105 27.5691 13.4892Z" fill="white"/>
<path fill-rule="evenodd" clip-rule="evenodd" d="M63.4363 21.0637V24.7003C63.4363 27.2744 63.4363 29.9083 63.4363 32.4275V36.3671C63.4363 36.7285 64.2515 38.7913 66.0121 38.7913C70.9079 38.7913 68.5133 34.2589 69.4702 28.3096C69.7437 26.6094 70.753 25.253 72.2716 24.4441C73.3648 23.8617 75.8609 23.4906 75.8609 21.3665C75.8609 17.5977 70.6099 17.1967 69.497 21.9726H69.0424C69.1682 21.1168 69.4762 20.257 68.3986 19.2829C67.2257 18.2225 65.4649 18.1798 64.3529 19.2529C63.9603 19.6318 63.4363 20.5001 63.4363 21.0635V21.0637Z" fill="white"/>
<path fill-rule="evenodd" clip-rule="evenodd" d="M19.1778 4.33546C18.6147 6.03711 17.6353 7.09789 16.6772 8.50149C14.5215 11.6605 14.9937 14.7264 18.4264 16.5701C18.7911 16.7659 19.5528 17.0868 19.9933 17.1291C21.2615 16.2933 22.5405 12.785 22.818 10.7413C23.0223 9.23652 22.9248 7.67837 22.6655 6.26685C22.4035 4.8395 21.8341 3.67917 21.6622 2.60027C22.7038 3.89057 23.6713 8.09806 23.4743 10.4495C23.1008 14.9095 20.9649 16.4832 20.8418 17.4276C22.2802 17.4276 22.4618 17.5149 23.5463 17.0414C26.8026 15.6195 27.6807 10.5091 26.2104 7.5736C25.3305 5.81675 22.477 0.942979 20.5989 0.526001C20.4594 0.703873 19.5219 3.58273 19.1774 4.33567L19.1778 4.33546Z" fill="white"/>
<path fill-rule="evenodd" clip-rule="evenodd" d="M34.841 21.2155V36.0645C34.841 39.6177 40.4473 39.7829 40.4473 36.0645V21.5188C40.4473 20.6494 40.1836 19.8115 39.7308 19.3562C38.0106 17.627 34.8408 18.6703 34.8408 21.2157L34.841 21.2155Z" fill="white"/>
<path fill-rule="evenodd" clip-rule="evenodd" d="M56.0829 33.6407C55.8067 32.234 57.8412 31.9484 58.0415 33.1964C58.2806 34.685 56.3109 34.8039 56.0829 33.6407ZM58.4973 28.4816C59.7259 27.8324 60.5322 29.4988 59.5703 30.1899C58.3771 31.0474 57.2455 29.1429 58.4973 28.4816ZM57.072 29.9502C57.006 30.7623 57.0299 31.0314 56.4761 31.4731C56.1955 32.4597 55.126 33.2902 54.2471 33.7661C54.367 34.1579 54.2033 33.8925 54.5089 34.1325C54.633 34.2301 54.8715 34.3087 55.0215 34.3745C55.3091 34.5003 55.6323 34.6634 55.9564 34.8083C56.5948 35.0941 57.209 35.5146 57.8718 35.5211C58.2596 35.1384 61.0826 29.2581 61.0343 28.4889C60.5838 28.1123 58.7472 27.3521 58.0045 26.9947C56.7231 26.3779 57.2059 26.5627 56.9712 26.6916C57.0191 27.9798 57.2111 28.4649 57.072 29.9502Z" fill="black"/>
<path fill-rule="evenodd" clip-rule="evenodd" d="M54.2487 33.7659C53.563 33.824 51.4683 32.8188 50.948 32.4283C50.8429 31.6043 53.6792 25.8049 54.0439 25.3224C54.9252 25.3576 56.4581 26.1909 56.9728 26.6916C57.2075 26.5625 56.7247 26.3779 58.0061 26.9946C58.7488 27.3523 60.5852 28.1125 61.0359 28.4889C61.0842 29.2578 58.2612 35.1384 57.8734 35.521C57.2104 35.5148 56.5964 35.0943 55.958 34.8083C55.6342 34.6631 55.3107 34.5 55.0231 34.3745C54.8731 34.3088 54.6346 34.2301 54.5105 34.1324C54.2049 33.8925 54.3686 34.1578 54.2487 33.7661V33.7659ZM53.1608 34.2457C54.4717 34.1197 56.4831 36.2088 58.2093 35.9307C58.8409 35.1216 59.5407 33.3441 60.0776 32.1958C62.2794 27.4876 62.5678 28.5936 56.4481 25.7298C53.4099 24.8131 54.1629 23.835 52.527 27.3968C52.029 28.4816 50.3447 31.4302 50.4832 32.573C50.7618 33.12 52.772 33.493 53.1606 34.2457H53.1608Z" fill="black"/>
<path fill-rule="evenodd" clip-rule="evenodd" d="M48.6685 32.3619C48.6225 32.4642 48.5979 33.1167 47.3338 32.9535C46.8835 32.2353 44.5933 26.5955 44.5689 25.9119C45.0584 25.3539 46.4995 24.9284 47.3292 24.6024C47.7746 24.4277 49.5697 23.5989 50.0065 23.63L50.1912 23.6822C50.8673 23.3219 51.1416 23.2876 51.95 23.2471C52.2732 24.1325 52.8395 24.7476 52.4067 25.7517L49.1544 32.4873C48.806 32.4988 48.9145 32.5011 48.6687 32.3621L48.6685 32.3619ZM49.2685 33.0578C49.436 32.6694 49.6322 32.6633 49.9284 32.0537C50.146 31.6053 50.2964 31.2449 50.5003 30.8067L52.8318 25.8577C53.5194 24.4393 52.263 23.9951 52.55 23.2032L51.8979 22.5411C50.768 22.5455 48.7458 23.5806 47.7516 23.943C42.9578 25.6903 43.6323 25.1515 45.3847 29.587C45.8113 30.6674 46.4157 32.3803 46.9466 33.3329C48.4356 33.5933 48.5585 32.9468 49.2685 33.0576V33.0578Z" fill="black"/>
<path fill-rule="evenodd" clip-rule="evenodd" d="M48.667 32.3624L48.4564 32.1214C47.8413 31.7226 47.9347 31.976 47.3458 31.367C47.2167 30.2977 47.5048 30.6876 47.5783 29.9022L47.5275 29.2205C47.3563 29.863 47.1676 30.1859 46.8116 30.7007C46.4919 30.2767 45.8148 28.7375 45.8371 28.0158C46.7722 28.3682 46.5887 28.2003 47.5441 28.0326L47.6027 27.5219C46.3419 27.7823 45.3711 27.9291 45.6954 26.215C46.017 25.9186 46.2455 25.6718 46.8047 25.7305C47.3652 25.7895 47.4175 26.1344 47.8924 26.4474C48.4108 25.0805 49.029 24.2346 50.1897 23.6823L50.005 23.63C49.5682 23.599 47.7728 24.4277 47.3277 24.6025C46.4979 24.9284 45.0568 25.3539 44.5674 25.9119C44.5918 26.5955 46.882 32.2353 47.3323 32.9535C48.5966 33.1168 48.6209 32.4644 48.667 32.362V32.3624Z" fill="black"/>
<path fill-rule="evenodd" clip-rule="evenodd" d="M53.9445 31.9736C54.5766 30.6937 52.5925 29.8606 52.0712 31.0251C51.4561 32.3989 53.3467 33.1841 53.9445 31.9736Z" fill="white"/>
<path fill-rule="evenodd" clip-rule="evenodd" d="M48.4557 32.1219C48.8781 31.6751 48.9289 31.8401 49.1803 31.4614C49.3359 31.2269 49.4021 30.9191 49.2817 30.5619C49.0305 29.8166 48.4848 29.9241 47.5776 29.9026C47.504 30.6881 47.216 30.2982 47.3451 31.3675C47.9341 31.9765 47.8406 31.723 48.4557 32.1219Z" fill="white"/>
<path fill-rule="evenodd" clip-rule="evenodd" d="M54.6028 26.5163C53.0998 27.1017 54.0812 28.9444 55.3507 28.4056C56.4406 27.943 55.8856 26.0166 54.6028 26.5163Z" fill="white"/>
<path fill-rule="evenodd" clip-rule="evenodd" d="M58.4976 28.4816C57.2458 29.1429 58.3774 31.0474 59.5707 30.1899C60.5325 29.4988 59.7263 27.8324 58.4976 28.4816Z" fill="white"/>
<path fill-rule="evenodd" clip-rule="evenodd" d="M56.0841 33.6414C56.3123 34.8046 58.2819 34.6859 58.0427 33.1971C57.8424 31.9491 55.8079 32.2344 56.0841 33.6414Z" fill="white"/>
<path fill-rule="evenodd" clip-rule="evenodd" d="M47.5283 29.2206L47.545 28.0327C46.5896 28.2004 46.7731 28.3683 45.8379 28.0159C45.8157 28.7376 46.4928 30.2768 46.8125 30.7008C47.1684 30.1857 47.3571 29.8629 47.5283 29.2206Z" fill="white"/>
<path fill-rule="evenodd" clip-rule="evenodd" d="M51.2069 24.5003C51.4831 25.0333 51.5335 26.0774 50.5004 25.6952C49.9557 25.4936 49.7889 24.2516 51.2069 24.5003ZM49.8164 24.6251L49.8199 25.6408C51.6262 27.022 52.0111 25.0835 51.8165 24.6565C51.0336 23.8765 50.6343 23.788 49.8164 24.6253V24.6251Z" fill="white"/>
<path fill-rule="evenodd" clip-rule="evenodd" d="M47.1664 26.164C47.2972 26.5118 47.3749 26.7494 47.2112 27.2058C46.864 27.3508 47.0691 27.352 46.6528 27.3685L46.1131 27.2231C46.1127 27.2227 45.6707 26.6191 46.1604 26.1804C46.4868 25.8884 46.9021 26.0748 47.1664 26.1638V26.164ZM47.6023 27.5218L47.8921 26.4472C47.4172 26.1342 47.3649 25.7893 46.8044 25.7303C46.2454 25.6716 46.0169 25.9184 45.6951 26.2148C45.3708 27.9289 46.3416 27.7821 47.6023 27.5218Z" fill="white"/>
<path fill-rule="evenodd" clip-rule="evenodd" d="M55.4592 29.8625C56.2427 29.6596 57.3431 30.2716 56.4031 30.9535C55.435 31.6558 55.1965 30.5771 55.4592 29.8625ZM56.476 31.4719C57.0298 31.0301 57.0061 30.761 57.0719 29.9489C56.6109 29.79 56.4325 29.2172 55.6545 29.4418C55.0011 29.6303 54.9022 30.223 55.0076 30.9253C55.6241 31.5985 55.7301 31.3325 56.476 31.4719Z" fill="white"/>
<path fill-rule="evenodd" clip-rule="evenodd" d="M46.1153 27.2244L46.655 27.3698C47.0711 27.3534 46.8662 27.3521 47.2134 27.2071C47.3771 26.7506 47.2994 26.5129 47.1686 26.1653C46.9043 26.0764 46.489 25.89 46.1626 26.182C45.6729 26.6206 46.1149 27.2242 46.1153 27.2246V27.2244Z" fill="white"/>
<path fill-rule="evenodd" clip-rule="evenodd" d="M55.4608 29.8638C55.1982 30.5784 55.4364 31.6569 56.4047 30.9548C57.3447 30.2729 56.2444 29.6611 55.4608 29.8638Z" fill="white"/>
<path fill-rule="evenodd" clip-rule="evenodd" d="M51.2051 24.5005C49.7871 24.2518 49.954 25.494 50.4986 25.6954C51.5315 26.0776 51.4811 25.0335 51.2051 24.5005Z" fill="white"/>
</svg>
