<svg width="170" height="49" viewBox="0 0 170 49" fill="none" xmlns="http://www.w3.org/2000/svg">
<path d="M7.75011 28.25C7.41895 28.2512 7.09426 28.1583 6.81378 27.9823C6.53329 27.8062 6.30852 27.5542 6.16557 27.2554C6.02262 26.9567 5.96737 26.6236 6.00623 26.2947C6.04509 25.9658 6.17647 25.6547 6.38511 25.3975L23.7101 7.54754C23.8401 7.39753 24.0172 7.29616 24.2123 7.26007C24.4075 7.22398 24.6091 7.25531 24.7841 7.34892C24.9591 7.44253 25.0971 7.59286 25.1754 7.77523C25.2538 7.9576 25.2677 8.16118 25.2151 8.35254L21.8551 18.8875C21.756 19.1527 21.7228 19.438 21.7581 19.7188C21.7935 19.9997 21.8965 20.2677 22.0583 20.5C22.22 20.7323 22.4357 20.9219 22.6868 21.0526C22.938 21.1832 23.217 21.251 23.5001 21.25H35.7501C36.0813 21.2489 36.406 21.3418 36.6864 21.5178C36.9669 21.6939 37.1917 21.9459 37.3346 22.2446C37.4776 22.5434 37.5328 22.8765 37.494 23.2054C37.4551 23.5343 37.3237 23.8454 37.1151 24.1025L19.7901 41.9525C19.6602 42.1025 19.4831 42.2039 19.2879 42.24C19.0927 42.2761 18.8911 42.2448 18.7161 42.1512C18.5411 42.0575 18.4031 41.9072 18.3248 41.7248C18.2465 41.5425 18.2325 41.3389 18.2851 41.1475L21.6451 30.6125C21.7442 30.3474 21.7775 30.0621 21.7421 29.7813C21.7067 29.5004 21.6037 29.2323 21.442 29C21.2802 28.7677 21.0645 28.5781 20.8134 28.4475C20.5622 28.3169 20.2832 28.2491 20.0001 28.25H7.75011Z" stroke="white" stroke-width="3.5" stroke-linecap="round" stroke-linejoin="round"/>
<path d="M56.7443 37.75V34.4645L69.8097 16.1321H56.7188V11.5682H76.7642V14.8537L63.6861 33.1861H76.7898V37.75H56.7443ZM89.8839 38.1335C87.864 38.1335 86.1254 37.7244 84.668 36.9062C83.2191 36.0795 82.1026 34.9119 81.3185 33.4034C80.5344 31.8864 80.1424 30.0923 80.1424 28.0213C80.1424 26.0014 80.5344 24.2287 81.3185 22.7031C82.1026 21.1776 83.2063 19.9886 84.6296 19.1364C86.0614 18.2841 87.7404 17.858 89.6665 17.858C90.962 17.858 92.168 18.0668 93.2844 18.4844C94.4094 18.8935 95.3896 19.5114 96.2248 20.3381C97.0685 21.1648 97.7248 22.2045 98.1935 23.4574C98.6623 24.7017 98.8967 26.1591 98.8967 27.8295V29.3253H82.3157V25.9503H93.7702C93.7702 25.1662 93.5998 24.4716 93.2589 23.8665C92.918 23.2614 92.445 22.7884 91.8398 22.4474C91.2433 22.098 90.5487 21.9233 89.756 21.9233C88.9293 21.9233 88.1964 22.1151 87.5572 22.4986C86.9265 22.8736 86.4322 23.3807 86.0742 24.0199C85.7163 24.6506 85.533 25.3537 85.5245 26.1293V29.3381C85.5245 30.3097 85.7035 31.1491 86.0614 31.8565C86.4279 32.5639 86.9435 33.1094 87.6083 33.4929C88.2731 33.8764 89.0614 34.0682 89.9734 34.0682C90.5785 34.0682 91.1325 33.983 91.6353 33.8125C92.1381 33.642 92.5685 33.3864 92.9265 33.0455C93.2844 32.7045 93.5572 32.2869 93.7447 31.7926L98.7816 32.125C98.5259 33.3352 98.0018 34.392 97.2092 35.2955C96.4251 36.1903 95.4109 36.8892 94.1665 37.392C92.9308 37.8864 91.5032 38.1335 89.8839 38.1335ZM107.897 26.3977V37.75H102.451V18.1136H107.641V21.5781H107.871C108.306 20.4361 109.034 19.5327 110.057 18.8679C111.08 18.1946 112.32 17.858 113.777 17.858C115.141 17.858 116.33 18.1562 117.344 18.7528C118.358 19.3494 119.147 20.2017 119.709 21.3097C120.272 22.4091 120.553 23.7216 120.553 25.2472V37.75H115.107V26.2188C115.115 25.017 114.809 24.0795 114.186 23.4062C113.564 22.7244 112.708 22.3835 111.617 22.3835C110.884 22.3835 110.236 22.5412 109.674 22.8565C109.12 23.1719 108.685 23.6321 108.37 24.2372C108.063 24.8338 107.905 25.554 107.897 26.3977ZM124.845 37.75V18.1136H130.291V37.75H124.845ZM127.581 15.5824C126.771 15.5824 126.077 15.3139 125.497 14.777C124.926 14.2315 124.641 13.5795 124.641 12.821C124.641 12.071 124.926 11.4276 125.497 10.8906C126.077 10.3452 126.771 10.0724 127.581 10.0724C128.391 10.0724 129.081 10.3452 129.652 10.8906C130.232 11.4276 130.521 12.071 130.521 12.821C130.521 13.5795 130.232 14.2315 129.652 14.777C129.081 15.3139 128.391 15.5824 127.581 15.5824ZM145.098 18.1136V22.2045H133.273V18.1136H145.098ZM135.958 13.4091H141.404V31.7159C141.404 32.2187 141.48 32.6108 141.634 32.892C141.787 33.1648 142 33.3565 142.273 33.4673C142.554 33.5781 142.878 33.6335 143.245 33.6335C143.5 33.6335 143.756 33.6122 144.012 33.5696C144.267 33.5185 144.463 33.4801 144.6 33.4545L145.456 37.5071C145.184 37.5923 144.8 37.6903 144.306 37.8011C143.811 37.9205 143.211 37.9929 142.503 38.0185C141.191 38.0696 140.04 37.8949 139.051 37.4943C138.071 37.0937 137.309 36.4716 136.763 35.6278C136.218 34.7841 135.949 33.7187 135.958 32.4318V13.4091ZM154.514 26.3977V37.75H149.068V11.5682H154.36V21.5781H154.591C155.034 20.419 155.75 19.5114 156.738 18.8551C157.727 18.1903 158.967 17.858 160.458 17.858C161.822 17.858 163.011 18.1562 164.025 18.7528C165.048 19.3409 165.841 20.1889 166.403 21.2969C166.974 22.3963 167.255 23.7131 167.247 25.2472V37.75H161.801V26.2188C161.809 25.0085 161.502 24.0668 160.88 23.3935C160.267 22.7202 159.406 22.3835 158.298 22.3835C157.556 22.3835 156.9 22.5412 156.329 22.8565C155.767 23.1719 155.324 23.6321 155 24.2372C154.684 24.8338 154.522 25.554 154.514 26.3977Z" fill="#F2F2F2"/>
</svg>
